<svg width="14" height="14" viewBox="0 0 14 14" fill="none" xmlns="http://www.w3.org/2000/svg">
<path d="M12.0427 1.49191H10.5249V0.391202C10.5249 0.186382 10.3447 -0.00905643 10.1333 0.000324637C10.03 0.0021321 9.9314 0.043894 9.85835 0.11681C9.7853 0.189725 9.74346 0.2881 9.74165 0.391202V1.49191H4.25913V0.391202C4.25913 0.186382 4.07899 -0.00905643 3.86752 0.000324637C3.76423 0.0021321 3.66567 0.043894 3.59262 0.11681C3.51957 0.189725 3.47773 0.2881 3.47592 0.391202V1.49191H1.95804C1.43893 1.49253 0.941253 1.69864 0.574184 2.06503C0.207115 2.43141 0.000621818 2.92816 0 3.4463V12.0456C0 13.1237 0.878769 14 1.95804 14H12.042C13.122 14 14 13.1237 14 12.0456V3.4463C13.9996 2.92823 13.7933 2.43148 13.4263 2.06507C13.0594 1.69867 12.5618 1.49253 12.0427 1.49191ZM1.95804 2.27367H3.47592V2.73647C3.47592 2.94129 3.65606 3.13673 3.86752 3.12735C4.07978 3.11797 4.25913 2.95536 4.25913 2.73647V2.27367H9.74165V2.73647C9.74165 2.94129 9.92179 3.13673 10.1333 3.12735C10.3455 3.11797 10.5249 2.95536 10.5249 2.73647V2.27367H12.042C12.6897 2.27367 13.2168 2.79979 13.2168 3.4463V4.6846H0.783217V3.4463C0.783217 2.79979 1.31032 2.27367 1.95804 2.27367ZM12.0427 13.2182H1.95804C1.31032 13.2182 0.783217 12.6921 0.783217 12.0456V5.46636H13.2168V12.0456C13.2168 12.3565 13.0931 12.6546 12.873 12.8745C12.6528 13.0944 12.3542 13.218 12.0427 13.2182Z" fill="#303334"/>
</svg>
